<?xml version="1.0" encoding="utf-8"?>
<!-- Generator: Adobe Illustrator 13.0.0, SVG Export Plug-In . SVG Version: 6.00 Build 14948)  -->
<!DOCTYPE svg PUBLIC "-//W3C//DTD SVG 1.1//EN" "http://www.w3.org/Graphics/SVG/1.1/DTD/svg11.dtd">
<svg version="1.1" id="Layer_1" xmlns="http://www.w3.org/2000/svg" xmlns:xlink="http://www.w3.org/1999/xlink" x="0px" y="0px"
	 width="160px" height="160px" viewBox="0 0 160 160" enable-background="new 0 0 160 160" xml:space="preserve">
<path id="small4" inkscape:label="#path4000" inkscape:connector-curvature="0" fill="#55DDFF" d="M66.496,96.55l-4.99,2.885
	l13.504,23.386H48v5.769h27.007l-13.504,23.385l4.992,2.885L80,131.474l13.504,23.385l5-2.885L85,128.589h26.998v-5.769H85
	l13.504-23.386l-5-2.885L80,119.935L66.496,96.55z"/>
<path id="small1" inkscape:label="#path4002" inkscape:connector-curvature="0" fill="#55DDFF" d="M66.496,0l-4.99,2.884
	l13.504,23.384H48v5.769h27.007L61.503,55.422l4.992,2.884L80,34.922l13.504,23.384l5-2.884L85,32.038h26.998v-5.769H85
	L98.503,2.885l-5-2.884L80,23.385L66.496,0z"/>
<path id="small2" inkscape:label="#path3970" inkscape:connector-curvature="0" fill="#55DDFF" d="M114.496,19.907l-4.99,2.884
	l13.504,23.384H96v5.769h27.01l-13.504,23.384l4.99,2.884L128,54.828l13.506,23.384l5-2.884l-13.504-23.384H160v-5.769h-26.998
	l13.504-23.384l-5-2.884L128,43.291L114.496,19.907L114.496,19.907z"/>
<path id="small3" inkscape:label="#path3996" inkscape:connector-curvature="0" fill="#55DDFF" d="M114.496,72.413l-4.99,2.884
	l13.504,23.384H96v5.77h27.01l-13.504,23.385l4.99,2.885L128,107.335l13.506,23.385l5-2.885l-13.504-23.385H160v-5.77h-26.998
	l13.504-23.384l-5-2.884L128,95.796L114.496,72.413L114.496,72.413z"/>
<path id="small5" inkscape:label="#path3994" inkscape:connector-curvature="0" fill="#55DDFF" d="M18.496,72.413l-4.991,2.884
	l13.504,23.384H0v5.77h27.008l-13.504,23.385l4.991,2.885l13.504-23.385l13.504,23.385l5-2.885L37,104.451h27v-5.77H37.001
	l13.504-23.384l-5.001-2.884L32,95.796L18.496,72.413z"/>
<path id="small6" inkscape:label="#path3998" inkscape:connector-curvature="0" fill="#55DDFF" d="M18.496,19.907l-4.991,2.884
	l13.504,23.384H0v5.769h27.008L13.504,75.328l4.991,2.884l13.504-23.384l13.504,23.384l5-2.884L37,51.944h27v-5.769H37.001
	l13.504-23.384l-5.001-2.884L32,43.292L18.496,19.907z"/>
<path id="big1" inkscape:label="#rect3928" inkscape:connector-curvature="0" fill="#00AAD4" d="M46.239,3.302L33.76,10.513
	l33.761,58.46H0v14.421h67.521L33.76,141.855l12.479,7.212L80,90.606l33.762,58.461l12.502-7.211L92.501,83.394H160V68.973H92.501
	l33.762-58.46l-12.502-7.211L80,61.762L46.239,3.302L46.239,3.302z"/>
</svg>
